<?xml version="1.0" encoding="UTF-8" standalone="no"?>
<!-- Created with Inkscape (http://www.inkscape.org/) -->

<svg
   width="16"
   height="16"
   viewBox="0 0 4.2333332 4.2333333"
   version="1.1"
   id="svg1"
   inkscape:version="1.3 (0e150ed6c4, 2023-07-21)"
   sodipodi:docname="fsm.svg"
   xmlns:inkscape="http://www.inkscape.org/namespaces/inkscape"
   xmlns:sodipodi="http://sodipodi.sourceforge.net/DTD/sodipodi-0.dtd"
   xmlns="http://www.w3.org/2000/svg"
   xmlns:svg="http://www.w3.org/2000/svg">
  <sodipodi:namedview
     id="namedview1"
     pagecolor="#505050"
     bordercolor="#ffffff"
     borderopacity="1"
     inkscape:showpageshadow="0"
     inkscape:pageopacity="0"
     inkscape:pagecheckerboard="1"
     inkscape:deskcolor="#505050"
     inkscape:document-units="mm"
     inkscape:zoom="34.825009"
     inkscape:cx="4.7092594"
     inkscape:cy="8.0114839"
     inkscape:window-width="1920"
     inkscape:window-height="996"
     inkscape:window-x="1920"
     inkscape:window-y="0"
     inkscape:window-maximized="1"
     inkscape:current-layer="layer1" />
  <defs
     id="defs1">
    <inkscape:perspective
       sodipodi:type="inkscape:persp3d"
       inkscape:vp_x="0.28933793 : 3.187762 : 1"
       inkscape:vp_y="0 : 1000 : 0"
       inkscape:vp_z="4.3722481 : 3.3059514 : 1"
       inkscape:persp3d-origin="2.0406915 : -0.52625378 : 1"
       id="perspective1" />
  </defs>
  <g
     inkscape:label="Layer 1"
     inkscape:groupmode="layer"
     id="layer1">
    <path
       d="M 3.617867,2.2133016 2.2034831,2.7016439 V 4.1144775 L 3.617867,3.6261353 Z M 0.61649984,2.2138184 V 3.6473226 L 2.0283,4.1434163 v -1.434021 z"
       style="fill:#414042;stroke-width:0.184587;stroke-linecap:round;stroke-linejoin:round;paint-order:markers fill stroke;stroke:none;stroke-opacity:1;fill-opacity:1"
       id="path22" />
    <path
       d="M 3.4902262,0.11177866 A 1.4891118,1.5165565 0 0 1 3.4090942,0.27919801 1.4891118,1.5165565 0 0 1 3.3010905,0.4444582 1.4891118,1.5165565 0 0 1 3.1724162,0.59351739 1.4891118,1.5165565 0 0 1 3.0261719,0.72421225 1.4891118,1.5165565 0 0 1 2.8644246,0.83438571 1.4891118,1.5165565 0 0 1 2.6897583,0.92187652 1.4891118,1.5165565 0 0 1 2.5052734,0.98560406 1.4891118,1.5165565 0 0 1 2.3140706,1.0244898 1.4891118,1.5165565 0 0 1 2.1197673,1.0374489 1.4891118,1.5165565 0 0 1 1.9254639,1.0244898 1.4891118,1.5165565 0 0 1 1.7342611,0.98560469 1.4891118,1.5165565 0 0 1 1.5497762,0.92187694 1.4891118,1.5165565 0 0 1 1.3751099,0.83438634 1.4891118,1.5165565 0 0 1 1.2133626,0.72421309 1.4891118,1.5165565 0 0 1 1.0666016,0.59351718 1.4891118,1.5165565 0 0 1 0.93844401,0.44445903 1.4891118,1.5165565 0 0 1 0.8299235,0.27919906 1.4891118,1.5165565 0 0 1 0.7601603,0.13338173 1.4587219,1.5244966 0 0 0 0.7183024,0.26191744 1.4587219,1.5244966 0 0 0 0.6810954,0.45742046 1.4587219,1.5244966 0 0 0 0.668693,0.65616535 1.4587219,1.5244966 0 0 0 0.6810954,0.85491025 1.4587219,1.5244966 0 0 0 0.7183024,1.0504133 1.4587219,1.5244966 0 0 0 0.7797974,1.2394367 1.4587219,1.5244966 0 0 0 0.86403,1.4187388 1.4587219,1.5244966 0 0 0 0.96996668,1.5839989 1.4587219,1.5244966 0 0 0 1.0960571,1.7341367 1.4587219,1.5244966 0 0 0 1.2392008,1.8659122 1.4587219,1.5244966 0 0 0 1.3978475,1.9760856 1.4587219,1.5244966 0 0 0 1.5688965,2.064657 1.4587219,1.5244966 0 0 0 1.749764,2.1283846 1.4587219,1.5244966 0 0 0 1.9368327,2.1672682 1.4587219,1.5244966 0 0 0 2.1275188,2.1802274 1.4587219,1.5244966 0 0 0 2.3176881,2.1672682 1.4587219,1.5244966 0 0 0 2.5047568,2.1283846 1.4587219,1.5244966 0 0 0 2.6856243,2.064657 1.4587219,1.5244966 0 0 0 2.8566733,1.9760856 1.4587219,1.5244966 0 0 0 3.0153199,1.8659122 1.4587219,1.5244966 0 0 0 3.1589804,1.7341367 1.4587219,1.5244966 0 0 0 3.2845541,1.5839989 1.4587219,1.5244966 0 0 0 3.3904908,1.4187388 1.4587219,1.5244966 0 0 0 3.4752398,1.2394367 1.4587219,1.5244966 0 0 0 3.5362178,1.0504133 1.4587219,1.5244966 0 0 0 3.5734248,0.85491025 1.4587219,1.5244966 0 0 0 3.5858268,0.65616535 1.4587219,1.5244966 0 0 0 3.5842768,0.58595616 1.4587219,1.5244966 0 0 0 3.5796268,0.51574697 1.4587219,1.5244966 0 0 0 3.5718768,0.44553778 1.4587219,1.5244966 0 0 0 3.5610229,0.37641088 1.4587219,1.5244966 0 0 0 3.5470703,0.30728231 1.4587219,1.5244966 0 0 0 3.5305339,0.23923416 1.4587219,1.5244966 0 0 0 3.51038,0.172266 1.4587219,1.5244966 0 0 0 3.4902262,0.11177866 Z"
       style="fill:#3cf34e;stroke-width:0.383121;stroke-linecap:round;stroke-linejoin:round;paint-order:markers fill stroke;fill-opacity:1"
       id="path25" />
  </g>
</svg>
