<?xml version="1.0" encoding="UTF-8" standalone="no"?>
<!-- Created with Inkscape (http://www.inkscape.org/) -->

<svg
   width="16"
   height="16"
   viewBox="0 0 4.2333332 4.2333333"
   version="1.1"
   id="svg1"
   inkscape:version="1.3 (0e150ed6c4, 2023-07-21)"
   sodipodi:docname="fsm_sub_state.svg"
   xmlns:inkscape="http://www.inkscape.org/namespaces/inkscape"
   xmlns:sodipodi="http://sodipodi.sourceforge.net/DTD/sodipodi-0.dtd"
   xmlns="http://www.w3.org/2000/svg"
   xmlns:svg="http://www.w3.org/2000/svg">
  <sodipodi:namedview
     id="namedview1"
     pagecolor="#505050"
     bordercolor="#ffffff"
     borderopacity="1"
     inkscape:showpageshadow="0"
     inkscape:pageopacity="0"
     inkscape:pagecheckerboard="1"
     inkscape:deskcolor="#505050"
     inkscape:document-units="mm"
     inkscape:zoom="34.825009"
     inkscape:cx="7.1213191"
     inkscape:cy="7.207464"
     inkscape:window-width="1920"
     inkscape:window-height="996"
     inkscape:window-x="1920"
     inkscape:window-y="0"
     inkscape:window-maximized="1"
     inkscape:current-layer="layer1" />
  <defs
     id="defs1">
    <inkscape:perspective
       sodipodi:type="inkscape:persp3d"
       inkscape:vp_x="0.28933793 : 3.187762 : 1"
       inkscape:vp_y="0 : 1000 : 0"
       inkscape:vp_z="4.3722481 : 3.3059514 : 1"
       inkscape:persp3d-origin="2.0406915 : -0.52625378 : 1"
       id="perspective1" />
  </defs>
  <g
     inkscape:label="Layer 1"
     inkscape:groupmode="layer"
     id="layer1">
    <path
       d="M 3.617867,2.2133016 2.2034831,2.7016439 V 4.1144775 L 3.617867,3.6261353 Z M 0.61649984,2.2138184 V 3.6473226 L 2.0283,4.1434163 v -1.434021 z"
       style="fill:#414042;stroke-width:0.184587;stroke-linecap:round;stroke-linejoin:round;paint-order:markers fill stroke;stroke:none;stroke-opacity:1;fill-opacity:1"
       id="path22" />
    <path
       d="m 3.4902262,1.1146499 a 1.4891118,0.78126601 0 0 1 -0.081132,0.086247 1.4891118,0.78126601 0 0 1 -0.1080037,0.085135 1.4891118,0.78126601 0 0 1 -0.1286743,0.076789 1.4891118,0.78126601 0 0 1 -0.1462443,0.067328 1.4891118,0.78126601 0 0 1 -0.1617473,0.056757 1.4891118,0.78126601 0 0 1 -0.1746663,0.045072 1.4891118,0.78126601 0 0 1 -0.1844849,0.03283 1.4891118,0.78126601 0 0 1 -0.1912028,0.020032 1.4891118,0.78126601 0 0 1 -0.1943033,0.00668 A 1.4891118,0.78126601 0 0 1 1.9254639,1.5848402 1.4891118,0.78126601 0 0 1 1.7342611,1.5648083 1.4891118,0.78126601 0 0 1 1.5497762,1.5319784 1.4891118,0.78126601 0 0 1 1.3751099,1.4869069 1.4891118,0.78126601 0 0 1 1.2133626,1.4301503 1.4891118,0.78126601 0 0 1 1.0666016,1.3628213 1.4891118,0.78126601 0 0 1 0.93844401,1.2860328 1.4891118,0.78126601 0 0 1 0.8299235,1.2008978 1.4891118,0.78126601 0 0 1 0.7601603,1.1257789 1.4587219,0.78535641 0 0 0 0.7183024,1.1919951 1.4587219,0.78535641 0 0 0 0.6810954,1.29271 1.4587219,0.78535641 0 0 0 0.668693,1.395095 1.4587219,0.78535641 0 0 0 0.6810954,1.49748 a 1.4587219,0.78535641 0 0 0 0.037207,0.1007149 1.4587219,0.78535641 0 0 0 0.061495,0.097377 1.4587219,0.78535641 0 0 0 0.0842326,0.092369 1.4587219,0.78535641 0 0 0 0.10593668,0.085135 1.4587219,0.78535641 0 0 0 0.12609042,0.077345 1.4587219,0.78535641 0 0 0 0.1431437,0.067885 1.4587219,0.78535641 0 0 0 0.1586467,0.056757 1.4587219,0.78535641 0 0 0 0.171049,0.045628 1.4587219,0.78535641 0 0 0 0.1808675,0.03283 1.4587219,0.78535641 0 0 0 0.1870687,0.020031 1.4587219,0.78535641 0 0 0 0.1906861,0.00668 1.4587219,0.78535641 0 0 0 0.1901693,-0.00668 1.4587219,0.78535641 0 0 0 0.1870687,-0.020031 1.4587219,0.78535641 0 0 0 0.1808675,-0.03283 1.4587219,0.78535641 0 0 0 0.171049,-0.045628 1.4587219,0.78535641 0 0 0 0.1586466,-0.056757 1.4587219,0.78535641 0 0 0 0.1436605,-0.067885 1.4587219,0.78535641 0 0 0 0.1255737,-0.077345 1.4587219,0.78535641 0 0 0 0.1059367,-0.085135 1.4587219,0.78535641 0 0 0 0.084749,-0.092369 1.4587219,0.78535641 0 0 0 0.060978,-0.097377 A 1.4587219,0.78535641 0 0 0 3.5734248,1.49748 1.4587219,0.78535641 0 0 0 3.5858268,1.395095 1.4587219,0.78535641 0 0 0 3.5842768,1.358926 1.4587219,0.78535641 0 0 0 3.5796268,1.322757 1.4587219,0.78535641 0 0 0 3.5718768,1.286588 1.4587219,0.78535641 0 0 0 3.5610228,1.250977 1.4587219,0.78535641 0 0 0 3.5470698,1.215365 1.4587219,0.78535641 0 0 0 3.5305338,1.180309 1.4587219,0.78535641 0 0 0 3.5103798,1.14581 1.4587219,0.78535641 0 0 0 3.4902262,1.1146499 Z"
       style="fill:#3cf34e;fill-opacity:1;stroke-width:0.274983;stroke-linecap:round;stroke-linejoin:round;paint-order:markers fill stroke"
       id="path25" />
    <path
       sodipodi:type="star"
       style="fill:#3cf34e;fill-opacity:1;stroke:none;stroke-width:0.264999;stroke-linecap:round;stroke-linejoin:round;stroke-opacity:1;paint-order:markers fill stroke"
       id="path26"
       inkscape:flatsided="true"
       sodipodi:sides="3"
       sodipodi:cx="1.3447592"
       sodipodi:cy="1.208004"
       sodipodi:r1="1.0266763"
       sodipodi:r2="0.51333815"
       sodipodi:arg1="-1.5707963"
       sodipodi:arg2="-0.52359878"
       inkscape:rounded="0"
       inkscape:randomized="0"
       d="m 1.3447593,0.1813277 0.8891277,1.5400145 -1.77825554,-1e-7 z"
       inkscape:transform-center-y="-0.17638889"
       transform="matrix(0.89272885,0,0,0.68722298,0.91616132,0.13997077)" />
  </g>
</svg>
