<?xml version="1.0" encoding="UTF-8" standalone="no"?>
<!-- Created with Inkscape (http://www.inkscape.org/) -->

<svg
   width="16"
   height="16"
   viewBox="0 0 4.2333332 4.2333333"
   version="1.1"
   id="svg1"
   inkscape:version="1.3 (0e150ed6c4, 2023-07-21)"
   sodipodi:docname="interaction_area3d.svg"
   xmlns:inkscape="http://www.inkscape.org/namespaces/inkscape"
   xmlns:sodipodi="http://sodipodi.sourceforge.net/DTD/sodipodi-0.dtd"
   xmlns="http://www.w3.org/2000/svg"
   xmlns:svg="http://www.w3.org/2000/svg">
  <sodipodi:namedview
     id="namedview1"
     pagecolor="#505050"
     bordercolor="#ffffff"
     borderopacity="1"
     inkscape:showpageshadow="0"
     inkscape:pageopacity="0"
     inkscape:pagecheckerboard="1"
     inkscape:deskcolor="#505050"
     inkscape:document-units="mm"
     inkscape:zoom="31.768538"
     inkscape:cx="6.6417913"
     inkscape:cy="9.6006936"
     inkscape:window-width="1920"
     inkscape:window-height="996"
     inkscape:window-x="1920"
     inkscape:window-y="0"
     inkscape:window-maximized="1"
     inkscape:current-layer="layer1" />
  <defs
     id="defs1" />
  <g
     inkscape:label="Layer 1"
     inkscape:groupmode="layer"
     id="layer1">
    <path
       id="path1"
       style="fill:#fc7f7f;stroke:none;stroke-width:0.265;stroke-opacity:1;paint-order:markers fill stroke;stroke-dasharray:none;stroke-linejoin:round;stroke-linecap:round"
       d="M 2.5264608 0.28008626 L 2.5264608 0.89038493 A 1.3038146 1.2782496 0 0 1 3.0545939 1.1854574 L 3.8199219 1.1854574 A 1.911384 1.8739059 0 0 0 2.5264608 0.28008626 z M 1.7068726 0.29920654 A 1.911384 1.8739059 0 0 0 0.24959717 2.1156331 A 1.911384 1.8739059 0 0 0 1.7068726 3.931543 L 1.7068726 3.3129761 A 1.3038146 1.2782496 0 0 1 0.85731201 2.1156331 A 1.3038146 1.2782496 0 0 1 1.7068726 0.91777344 L 1.7068726 0.29920654 z M 3.0468424 3.047876 A 1.3038146 1.2782496 0 0 1 2.5264608 3.3393311 L 2.5264608 3.9501465 A 1.911384 1.8739059 0 0 0 3.8142375 3.047876 L 3.0468424 3.047876 z " />
    <path
       d="M 2.1399211,1.3983643 1.4133504,1.7471802 1.398881,2.4654826 2.1120158,2.8349691 2.7967285,2.5068237 h 1.308964 V 1.732194 H 2.7838094 Z"
       style="fill:#8045ff;stroke:none;stroke-width:0.265;stroke-linecap:round;paint-order:markers fill stroke;stroke-dasharray:none;stroke-linejoin:round"
       id="path4" />
  </g>
</svg>
