<?xml version="1.0" encoding="UTF-8" standalone="no"?>
<!-- Created with Inkscape (http://www.inkscape.org/) -->

<svg
   width="16"
   height="16"
   viewBox="0 0 4.2333332 4.2333333"
   version="1.1"
   id="svg1"
   inkscape:version="1.3 (0e150ed6c4, 2023-07-21)"
   sodipodi:docname="interact_object_static3d.svg"
   xmlns:inkscape="http://www.inkscape.org/namespaces/inkscape"
   xmlns:sodipodi="http://sodipodi.sourceforge.net/DTD/sodipodi-0.dtd"
   xmlns="http://www.w3.org/2000/svg"
   xmlns:svg="http://www.w3.org/2000/svg">
  <sodipodi:namedview
     id="namedview1"
     pagecolor="#505050"
     bordercolor="#ffffff"
     borderopacity="1"
     inkscape:showpageshadow="0"
     inkscape:pageopacity="0"
     inkscape:pagecheckerboard="1"
     inkscape:deskcolor="#505050"
     inkscape:document-units="mm"
     inkscape:zoom="31.768538"
     inkscape:cx="7.8379434"
     inkscape:cy="7.8379434"
     inkscape:window-width="1920"
     inkscape:window-height="996"
     inkscape:window-x="1920"
     inkscape:window-y="0"
     inkscape:window-maximized="1"
     inkscape:current-layer="layer1" />
  <defs
     id="defs1" />
  <g
     inkscape:label="Layer 1"
     inkscape:groupmode="layer"
     id="layer1">
    <rect
       style="fill:none;fill-opacity:1;stroke:#fc7f7f;stroke-width:0.298152;stroke-linecap:round;stroke-linejoin:round;stroke-opacity:1;paint-order:markers fill stroke"
       id="rect1"
       width="3.9351811"
       height="1.2893478"
       x="0.149076"
       y="2.7949092" />
    <path
       d="M 2.0861776,0.02480469 A 1.4116757,1.4116757 0 0 0 1.8851562,0.03927409 1.4116757,1.4116757 0 0 0 1.6887858,0.08216553 1.4116757,1.4116757 0 0 0 1.4996501,0.15244548 1.4116757,1.4116757 0 0 0 1.3229167,0.2490804 1.4116757,1.4116757 0 0 0 1.1616862,0.37000326 1.4116757,1.4116757 0 0 0 1.019576,0.51211344 1.4116757,1.4116757 0 0 0 0.89865316,0.67334391 a 1.4116757,1.4116757 0 0 0 -0.0966349,0.1767334 1.4116757,1.4116757 0 0 0 -0.07028,0.18861899 1.4116757,1.4116757 0 0 0 -0.0428914,0.1968872 1.4116757,1.4116757 0 0 0 -0.0144694,0.2010213 1.4116757,1.4116757 0 0 0 0.0144694,0.1989543 1.4116757,1.4116757 0 0 1 0.0428914,-0.1963705 1.4116757,1.4116757 0 0 1 0.07028,-0.1891357 A 1.4116757,1.4116757 0 0 1 0.89865316,1.0733195 1.4116757,1.4116757 0 0 1 1.019576,0.91208903 1.4116757,1.4116757 0 0 1 1.1616862,0.76997884 1.4116757,1.4116757 0 0 1 1.3229167,0.64905599 a 1.4116757,1.4116757 0 0 1 0.1767334,-0.0966349 1.4116757,1.4116757 0 0 1 0.1891357,-0.07028 1.4116757,1.4116757 0 0 1 0.1963704,-0.0428914 1.4116757,1.4116757 0 0 1 0.2010214,-0.0144694 1.4116757,1.4116757 0 0 1 0.07183,0.002067 1.4116757,1.4116757 0 0 1 0.071314,0.005168 1.4116757,1.4116757 0 0 1 0.070797,0.009302 1.4116757,1.4116757 0 0 1 0.07028,0.0124024 1.4116757,1.4116757 0 0 1 0.069763,0.0165364 1.4116757,1.4116757 0 0 1 0.06873,0.0196371 1.4116757,1.4116757 0 0 1 0.067696,0.0227376 1.4116757,1.4116757 0 0 1 0.066146,0.0268717 1.4116757,1.4116757 0 0 1 0.065112,0.0299723 1.4116757,1.4116757 0 0 1 0.063562,0.0330729 1.4116757,1.4116757 0 0 1 0.061495,0.0361735 1.4116757,1.4116757 0 0 1 0.059945,0.0392741 1.4116757,1.4116757 0 0 1 0.057361,0.0423747 1.4116757,1.4116757 0 0 1 0.055811,0.0449585 1.4116757,1.4116757 0 0 1 0.05271,0.0480591 1.4116757,1.4116757 0 0 1 0.050643,0.0506429 1.4116757,1.4116757 0 0 1 0.048059,0.0532267 1.4116757,1.4116757 0 0 1 0.044958,0.0552938 1.4116757,1.4116757 0 0 1 0.042375,0.0578776 1.4116757,1.4116757 0 0 1 0.039274,0.059428 1.4116757,1.4116757 0 0 1 0.03669,0.061495 1.4116757,1.4116757 0 0 1 0.033073,0.063562 1.4116757,1.4116757 0 0 1 0.029972,0.065112 1.4116757,1.4116757 0 0 1 0.026355,0.066146 1.4116757,1.4116757 0 0 1 0.023254,0.067696 1.4116757,1.4116757 0 0 1 0.019637,0.06873 1.4116757,1.4116757 0 0 1 0.01602,0.069763 1.4116757,1.4116757 0 0 1 0.012402,0.070797 1.4116757,1.4116757 0 0 1 0.00207,0.014469 1.4116757,1.4116757 0 0 0 0.014469,-0.2010213 1.4116757,1.4116757 0 0 0 -0.00207,-0.071314 1.4116757,1.4116757 0 0 0 -0.00517,-0.071313 1.4116757,1.4116757 0 0 0 -0.0093,-0.071314 1.4116757,1.4116757 0 0 0 -0.012402,-0.07028 1.4116757,1.4116757 0 0 0 -0.01602,-0.069763 1.4116757,1.4116757 0 0 0 -0.019637,-0.06873 1.4116757,1.4116757 0 0 0 -0.023254,-0.0676961 1.4116757,1.4116757 0 0 0 -0.026355,-0.0661458 1.4116757,1.4116757 0 0 0 -0.029972,-0.0651123 1.4116757,1.4116757 0 0 0 -0.033073,-0.063562 1.4116757,1.4116757 0 0 0 -0.03669,-0.061495 A 1.4116757,1.4116757 0 0 0 3.2447632,0.63045247 1.4116757,1.4116757 0 0 0 3.2023885,0.57257487 1.4116757,1.4116757 0 0 0 3.15743,0.51728109 1.4116757,1.4116757 0 0 0 3.1093709,0.46405436 1.4116757,1.4116757 0 0 0 3.058728,0.41341146 1.4116757,1.4116757 0 0 0 3.0060181,0.36535238 1.4116757,1.4116757 0 0 0 2.9502075,0.32039388 1.4116757,1.4116757 0 0 0 2.8928467,0.27801921 1.4116757,1.4116757 0 0 0 2.832902,0.23874512 1.4116757,1.4116757 0 0 0 2.7714071,0.20257161 1.4116757,1.4116757 0 0 0 2.7078451,0.1694987 1.4116757,1.4116757 0 0 0 2.6427327,0.13952637 1.4116757,1.4116757 0 0 0 2.5765869,0.11265462 1.4116757,1.4116757 0 0 0 2.5088908,0.08991699 1.4116757,1.4116757 0 0 0 2.4401611,0.07027995 1.4116757,1.4116757 0 0 0 2.3703979,0.05374349 1.4116757,1.4116757 0 0 0 2.300118,0.04134115 1.4116757,1.4116757 0 0 0 2.2293213,0.03203939 1.4116757,1.4116757 0 0 0 2.1580078,0.02687174 1.4116757,1.4116757 0 0 0 2.0861776,0.02480469 Z"
       style="fill:#8045ff;stroke-width:0.264999;stroke-linecap:round;stroke-linejoin:round;paint-order:markers fill stroke"
       id="path2" />
    <path
       d="M 2.0861776,0.97425034 A 1.4116757,1.4116757 0 0 0 1.8851562,0.98871974 1.4116757,1.4116757 0 0 0 1.6887858,1.0316112 1.4116757,1.4116757 0 0 0 1.4996501,1.1018911 1.4116757,1.4116757 0 0 0 1.3229167,1.198526 1.4116757,1.4116757 0 0 0 1.1616862,1.3194489 1.4116757,1.4116757 0 0 0 1.019576,1.4615591 1.4116757,1.4116757 0 0 0 0.89865316,1.6227896 1.4116757,1.4116757 0 0 0 0.80201826,1.799523 a 1.4116757,1.4116757 0 0 0 -0.07028,0.1886189 1.4116757,1.4116757 0 0 0 -0.0428914,0.1968872 1.4116757,1.4116757 0 0 0 -0.0144694,0.2010213 1.4116757,1.4116757 0 0 0 0.0144694,0.1989543 1.4116757,1.4116757 0 0 1 0.0428914,-0.1963705 1.4116757,1.4116757 0 0 1 0.07028,-0.1891357 A 1.4116757,1.4116757 0 0 1 0.89865316,2.0227651 1.4116757,1.4116757 0 0 1 1.019576,1.8615347 1.4116757,1.4116757 0 0 1 1.1616862,1.7194245 1.4116757,1.4116757 0 0 1 1.3229167,1.5985016 a 1.4116757,1.4116757 0 0 1 0.1767334,-0.096635 1.4116757,1.4116757 0 0 1 0.1891357,-0.07028 1.4116757,1.4116757 0 0 1 0.1963704,-0.042891 1.4116757,1.4116757 0 0 1 0.2010214,-0.014469 1.4116757,1.4116757 0 0 1 0.07183,0.00207 1.4116757,1.4116757 0 0 1 0.071314,0.00517 1.4116757,1.4116757 0 0 1 0.070797,0.0093 1.4116757,1.4116757 0 0 1 0.07028,0.012402 1.4116757,1.4116757 0 0 1 0.069763,0.016536 1.4116757,1.4116757 0 0 1 0.06873,0.019637 1.4116757,1.4116757 0 0 1 0.067696,0.022738 1.4116757,1.4116757 0 0 1 0.066146,0.026872 1.4116757,1.4116757 0 0 1 0.065112,0.029972 1.4116757,1.4116757 0 0 1 0.063562,0.033073 1.4116757,1.4116757 0 0 1 0.061495,0.036174 1.4116757,1.4116757 0 0 1 0.059945,0.039274 1.4116757,1.4116757 0 0 1 0.057361,0.042375 1.4116757,1.4116757 0 0 1 0.055811,0.044959 1.4116757,1.4116757 0 0 1 0.05271,0.048059 1.4116757,1.4116757 0 0 1 0.050643,0.050643 1.4116757,1.4116757 0 0 1 0.048059,0.053227 1.4116757,1.4116757 0 0 1 0.044958,0.055294 1.4116757,1.4116757 0 0 1 0.042375,0.057878 1.4116757,1.4116757 0 0 1 0.039274,0.059428 1.4116757,1.4116757 0 0 1 0.03669,0.061495 1.4116757,1.4116757 0 0 1 0.033073,0.063562 1.4116757,1.4116757 0 0 1 0.029972,0.065112 1.4116757,1.4116757 0 0 1 0.026355,0.066146 1.4116757,1.4116757 0 0 1 0.023254,0.067696 1.4116757,1.4116757 0 0 1 0.019637,0.06873 1.4116757,1.4116757 0 0 1 0.01602,0.069763 1.4116757,1.4116757 0 0 1 0.012402,0.070797 1.4116757,1.4116757 0 0 1 0.00207,0.014469 1.4116757,1.4116757 0 0 0 0.014469,-0.2010213 1.4116757,1.4116757 0 0 0 -0.00207,-0.071314 1.4116757,1.4116757 0 0 0 -0.00517,-0.071313 1.4116757,1.4116757 0 0 0 -0.0093,-0.071314 1.4116757,1.4116757 0 0 0 -0.012402,-0.07028 1.4116757,1.4116757 0 0 0 -0.01602,-0.069763 1.4116757,1.4116757 0 0 0 -0.019637,-0.06873 A 1.4116757,1.4116757 0 0 0 3.4101276,1.8956408 1.4116757,1.4116757 0 0 0 3.3837726,1.829495 1.4116757,1.4116757 0 0 0 3.3538006,1.7643827 1.4116757,1.4116757 0 0 0 3.3207276,1.7008207 1.4116757,1.4116757 0 0 0 3.2840376,1.6393257 1.4116757,1.4116757 0 0 0 3.2447632,1.5798981 1.4116757,1.4116757 0 0 0 3.2023885,1.5220205 1.4116757,1.4116757 0 0 0 3.15743,1.4667267 1.4116757,1.4116757 0 0 0 3.1093709,1.4135 1.4116757,1.4116757 0 0 0 3.058728,1.3628571 1.4116757,1.4116757 0 0 0 3.0060181,1.314798 1.4116757,1.4116757 0 0 0 2.9502075,1.2698395 1.4116757,1.4116757 0 0 0 2.8928467,1.2274649 1.4116757,1.4116757 0 0 0 2.832902,1.1881908 1.4116757,1.4116757 0 0 0 2.7714071,1.1520173 1.4116757,1.4116757 0 0 0 2.7078451,1.1189443 1.4116757,1.4116757 0 0 0 2.6427327,1.088972 a 1.4116757,1.4116757 0 0 0 -0.066146,-0.026872 1.4116757,1.4116757 0 0 0 -0.067696,-0.022738 1.4116757,1.4116757 0 0 0 -0.06873,-0.019637 1.4116757,1.4116757 0 0 0 -0.069763,-0.016536 1.4116757,1.4116757 0 0 0 -0.07028,-0.0124023 1.4116757,1.4116757 0 0 0 -0.070797,-0.009302 1.4116757,1.4116757 0 0 0 -0.071314,-0.005168 1.4116757,1.4116757 0 0 0 -0.07183,-0.002067 z"
       style="fill:#8045ff;stroke-width:0.264999;stroke-linecap:round;stroke-linejoin:round;paint-order:markers fill stroke"
       id="path3" />
    <circle
       style="fill:#fc7f7f;fill-opacity:1;stroke:none;stroke-width:0.264999;stroke-linecap:round;stroke-linejoin:round;stroke-opacity:1;paint-order:markers fill stroke"
       id="path4"
       cx="0.8120259"
       cy="3.4271655"
       r="0.33730307" />
    <circle
       style="fill:#fc7f7f;fill-opacity:1;stroke:none;stroke-width:0.264999;stroke-linecap:round;stroke-linejoin:round;stroke-opacity:1;paint-order:markers fill stroke"
       id="circle4"
       cx="3.4521511"
       cy="3.4271655"
       r="0.33730307" />
  </g>
</svg>
