<?xml version="1.0" encoding="UTF-8" standalone="no"?>
<!-- Created with Inkscape (http://www.inkscape.org/) -->

<svg
   width="16"
   height="16"
   viewBox="0 0 4.2333332 4.2333333"
   version="1.1"
   id="svg1"
   inkscape:version="1.3 (0e150ed6c4, 2023-07-21)"
   sodipodi:docname="interaction_raycast3d.svg"
   xmlns:inkscape="http://www.inkscape.org/namespaces/inkscape"
   xmlns:sodipodi="http://sodipodi.sourceforge.net/DTD/sodipodi-0.dtd"
   xmlns="http://www.w3.org/2000/svg"
   xmlns:svg="http://www.w3.org/2000/svg">
  <sodipodi:namedview
     id="namedview1"
     pagecolor="#505050"
     bordercolor="#ffffff"
     borderopacity="1"
     inkscape:showpageshadow="0"
     inkscape:pageopacity="0"
     inkscape:pagecheckerboard="1"
     inkscape:deskcolor="#505050"
     inkscape:document-units="mm"
     inkscape:zoom="31.768538"
     inkscape:cx="6.6417913"
     inkscape:cy="9.6006936"
     inkscape:window-width="1920"
     inkscape:window-height="996"
     inkscape:window-x="1920"
     inkscape:window-y="0"
     inkscape:window-maximized="1"
     inkscape:current-layer="layer1" />
  <defs
     id="defs1" />
  <g
     inkscape:label="Layer 1"
     inkscape:groupmode="layer"
     id="layer1">
    <path
       id="path1"
       style="fill:#fc7f7f;stroke:none;stroke-width:0.265;stroke-opacity:1;paint-order:markers fill stroke;stroke-dasharray:none;stroke-linejoin:round;stroke-linecap:round"
       d="M 2.5264608 0.28008626 L 2.5264608 0.89038493 A 1.3038146 1.2782496 0 0 1 3.0545939 1.1854574 L 3.8199219 1.1854574 A 1.911384 1.8739059 0 0 0 2.5264608 0.28008626 z M 1.7068726 0.29920654 A 1.911384 1.8739059 0 0 0 0.24959717 2.1156331 A 1.911384 1.8739059 0 0 0 1.7068726 3.931543 L 1.7068726 3.3129761 A 1.3038146 1.2782496 0 0 1 0.85731201 2.1156331 A 1.3038146 1.2782496 0 0 1 1.7068726 0.91777344 L 1.7068726 0.29920654 z M 3.0468424 3.047876 A 1.3038146 1.2782496 0 0 1 2.5264608 3.3393311 L 2.5264608 3.9501465 A 1.911384 1.8739059 0 0 0 3.8142375 3.047876 L 3.0468424 3.047876 z " />
    <path
       d="m 3.7300049,1.5823324 -0.5906616,0.0093 -0.1116211,0.1999878 H 1.6438273 c -0.011537,0 -0.022878,9.335e-4 -0.034106,0.00207 -0.011229,0.00113 -0.022208,0.00244 -0.033073,0.00465 -0.010865,0.00221 -0.021593,0.00503 -0.032039,0.00827 -0.010447,0.00324 -0.020516,0.00716 -0.030489,0.011369 -0.00997,0.0042 -0.020011,0.00883 -0.029456,0.013953 -0.00944,0.00512 -0.018528,0.01056 -0.027388,0.016536 -0.00886,0.00598 -0.017616,0.01234 -0.025838,0.01912 -0.00822,0.00678 -0.015726,0.014176 -0.023254,0.021704 -0.00753,0.00753 -0.014924,0.015549 -0.021704,0.023771 -0.00678,0.00822 -0.013144,0.016461 -0.01912,0.025322 -0.00598,0.00886 -0.011419,0.017944 -0.016537,0.027389 -0.00512,0.00944 -0.00975,0.019483 -0.013953,0.029456 -0.0042,0.00997 -0.00813,0.020042 -0.011369,0.030489 -0.00324,0.010447 -0.00606,0.021174 -0.00827,0.032039 -0.00221,0.010865 -0.00352,0.021844 -0.00465,0.033073 -0.00113,0.011229 -0.00207,0.022569 -0.00207,0.034106 0,0.011537 9.335e-4,0.022878 0.00207,0.034106 0.00113,0.011229 0.00244,0.022208 0.00465,0.033073 0.00221,0.010865 0.00503,0.021593 0.00827,0.032039 0.00324,0.010447 0.00716,0.021033 0.011369,0.031006 0.0042,0.00997 0.00883,0.019494 0.013953,0.028939 0.00512,0.00944 0.01056,0.018528 0.016537,0.027388 0.00598,0.00886 0.01234,0.017616 0.01912,0.025838 0.00678,0.00822 0.014176,0.015726 0.021704,0.023254 0.00753,0.00753 0.015032,0.014924 0.023254,0.021704 0.00822,0.00678 0.016978,0.013144 0.025838,0.01912 0.00886,0.00598 0.017944,0.011419 0.027388,0.016536 0.00944,0.00512 0.019483,0.00975 0.029456,0.013953 0.00997,0.0042 0.020042,0.00813 0.030489,0.011369 0.010446,0.00324 0.021174,0.00606 0.032039,0.00827 0.010865,0.00221 0.021844,0.00403 0.033073,0.00517 0.011229,0.00113 0.022569,0.00155 0.034106,0.00155 h 1.4174845 l 0.094051,0.1570963 0.5906616,-0.0093 0.2873209,-0.5167643 z"
       style="fill:#8045ff;stroke-width:0.26458333;paint-order:markers fill stroke;stroke:none;stroke-opacity:1;stroke-dasharray:none;stroke-linejoin:miter;stroke-linecap:square;fill-opacity:1"
       id="path3" />
  </g>
</svg>
