<?xml version="1.0" encoding="UTF-8" standalone="no"?>
<svg
   height="16"
   viewBox="0 0 16 16"
   width="16"
   version="1.1"
   id="svg1"
   sodipodi:docname="labelled_hslider.svg"
   inkscape:version="1.3.2 (091e20ef0f, 2023-11-25, custom)"
   xmlns:inkscape="http://www.inkscape.org/namespaces/inkscape"
   xmlns:sodipodi="http://sodipodi.sourceforge.net/DTD/sodipodi-0.dtd"
   xmlns="http://www.w3.org/2000/svg"
   xmlns:svg="http://www.w3.org/2000/svg">
  <defs
     id="defs1" />
  <sodipodi:namedview
     id="namedview1"
     pagecolor="#505050"
     bordercolor="#ffffff"
     borderopacity="1"
     inkscape:showpageshadow="0"
     inkscape:pageopacity="0"
     inkscape:pagecheckerboard="1"
     inkscape:deskcolor="#505050"
     inkscape:zoom="50.911688"
     inkscape:cx="7.9156676"
     inkscape:cy="6.8942911"
     inkscape:window-width="1920"
     inkscape:window-height="996"
     inkscape:window-x="1920"
     inkscape:window-y="0"
     inkscape:window-maximized="1"
     inkscape:current-layer="svg1" />
  <path
     d="m 1,11 c 0,2.666666 4,2.666666 4,0 C 5,8.3333345 1,8.3333345 1,11 Z M 1,6 C 1,7.3333328 3,7.3333328 3,6 V 4 C 3,2.6666672 1,2.6666672 1,4 Z m 5.3947778,4 c 0.1693555,0.655911 0.1693555,1.344089 0,2 H 13.997 c 1.333333,0 1.333333,-2 0,-2 z M 3.9166667,5 c 0,1.3333328 2.0277777,1.3333328 2.0277777,0 0,-1.3333328 -2.0277777,-1.3333328 -2.0277777,0 z m 3.1388889,1 c 0,1.3333328 2,1.3333328 2,0 V 4 c 0,-1.3333328 -2,-1.3333328 -2,0 z"
     fill="#8eef97"
     id="path1"
     sodipodi:nodetypes="ssssssssccsscssssssss" />
  <g
     id="g4"
     transform="matrix(1.0359569,0,0,0.67190898,-0.16913296,1.2141599)">
    <path
       style="fill:none;stroke:#8eef97;stroke-linecap:round;stroke-linejoin:round;paint-order:markers fill stroke"
       d="M 10.036988,8.4459977 12.300086,0 l 2.31365,8.6346582"
       id="path3" />
    <path
       style="fill:none;stroke:#8eef97;stroke-linecap:round;stroke-linejoin:round;paint-order:markers fill stroke"
       d="M 13.937124,6.1095091 H 10.663048"
       id="path4" />
  </g>
</svg>
