<?xml version="1.0" encoding="UTF-8" standalone="no"?>
<!-- Created with Inkscape (http://www.inkscape.org/) -->

<svg
   width="16"
   height="16"
   viewBox="0 0 16 16"
   version="1.1"
   id="svg1"
   inkscape:version="1.3 (0e150ed6c4, 2023-07-21)"
   sodipodi:docname="virtual_camera.svg"
   xmlns:inkscape="http://www.inkscape.org/namespaces/inkscape"
   xmlns:sodipodi="http://sodipodi.sourceforge.net/DTD/sodipodi-0.dtd"
   xmlns="http://www.w3.org/2000/svg"
   xmlns:svg="http://www.w3.org/2000/svg">
  <sodipodi:namedview
     id="namedview1"
     pagecolor="#505050"
     bordercolor="#ffffff"
     borderopacity="1"
     inkscape:showpageshadow="0"
     inkscape:pageopacity="0"
     inkscape:pagecheckerboard="1"
     inkscape:deskcolor="#505050"
     inkscape:document-units="mm"
     inkscape:zoom="31.768538"
     inkscape:cx="6.578836"
     inkscape:cy="9.3488722"
     inkscape:window-width="1920"
     inkscape:window-height="996"
     inkscape:window-x="1920"
     inkscape:window-y="0"
     inkscape:window-maximized="1"
     inkscape:current-layer="g662" />
  <defs
     id="defs1" />
  <g
     inkscape:label="Layer 1"
     inkscape:groupmode="layer"
     id="layer1">
    <g
       id="g662"
       transform="translate(-0.24469466,0.57724089)"
       clip-path="none"
       style="stroke:#000000;stroke-opacity:1">
      <path
         d="M 5.5552415,1.952056 C 5.3365615,1.9519382 5.118285,1.9708903 4.9028978,2.0086966 4.6874202,2.0468227 4.4756779,2.1036794 4.2700853,2.1786185 4.0638084,2.2535123 3.8644787,2.3463149 3.6743822,2.4559622 3.4847822,2.565105 3.3050631,2.6905817 3.1372728,2.8309622 2.969734,2.9721338 2.814847,3.1276743 2.6743822,3.295806 2.5333258,3.4635195 2.407194,3.643241 2.297429,3.8329154 2.1885557,4.022454 2.0964094,4.221124 2.0220384,4.4266654 1.9470994,4.632258 1.8902426,4.8440003 1.8521165,5.0594779 c -0.038574,0.215972 -0.05818,0.4349074 -0.058594,0.6542968 5.27e-4,0.2187371 0.020133,0.437014 0.058594,0.6523438 0.038126,0.2154776 0.094983,0.4272198 0.1699219,0.6328125 0.074266,0.2062108 0.1664145,0.4055385 0.2753906,0.5957031 0.109765,0.1896744 0.2358968,0.3693959 0.3769532,0.5371094 0.1405515,0.1674546 0.2954359,0.3223391 0.4628906,0.4628906 0.1677135,0.1410563 0.347435,0.2671882 0.5371094,0.3769531 0.1901646,0.1089762 0.3894923,0.2011244 0.5957031,0.2753907 0.2055926,0.074939 0.4173349,0.1317957 0.6328125,0.1699218 0.2153298,0.038461 0.4336067,0.058067 0.6523437,0.058594 C 5.774631,9.4750802 5.9935663,9.4554741 6.2095384,9.4168997 6.425016,9.3787736 6.6367583,9.3219169 6.8423509,9.2469779 6.9143344,9.2160006 6.9853332,9.182781 7.0552415,9.1473685 L 8.5903978,13.409087 13.756413,4.5516654 9.2388353,4.9559622 C 9.2293418,4.9082387 9.2189231,4.8607034 9.2075853,4.8133841 9.1896081,4.7398753 9.1694164,4.6669248 9.1470384,4.5946341 9.1244688,4.5222885 9.0997177,4.4506407 9.0728197,4.3797904 9.0463098,4.3086268 9.0176506,4.2382815 8.9868822,4.1688529 8.9557232,4.1001614 8.9225048,4.0324219 8.8872728,3.9657279 8.8515446,3.8981868 8.8137664,3.8317491 8.7739915,3.7665091 8.734882,3.7021407 8.6938476,3.6389606 8.6509447,3.577056 8.6078863,3.5145121 8.5629435,3.4532857 8.516179,3.3934622 8.4697545,3.3340848 8.4215553,3.2761155 8.3716478,3.2196341 8.321254,3.1627298 8.2691463,3.1073654 8.2153978,3.0536185 8.1616509,2.99987 8.1062865,2.9477623 8.0493822,2.8973685 7.9929008,2.847461 7.9349314,2.7992617 7.875554,2.7528372 7.8157306,2.7060728 7.7545041,2.66113 7.6919603,2.6180716 7.6300556,2.5751687 7.5668756,2.5341342 7.5025072,2.4950247 7.4372671,2.4552499 7.3708295,2.4174716 7.3032884,2.3817435 7.2365944,2.3465114 7.1688549,2.313293 7.1001634,2.2821341 7.0307348,2.2513657 6.9603895,2.2227065 6.8892259,2.1961966 6.8183756,2.1692986 6.7467277,2.1445475 6.6743822,2.1219779 6.6020914,2.0995998 6.529141,2.0794082 6.4556322,2.061431 6.381924,2.0429095 6.3076706,2.0266258 6.2329759,2.0126029 6.1584576,1.9992776 6.0835531,1.9882048 6.0083665,1.9793997 5.9337287,1.9699939 5.8588246,1.9628292 5.7837572,1.9579154 5.7076625,1.9536477 5.6314549,1.9516937 5.5552415,1.952056 Z"
         style="fill:#fc7f7f;stroke-width:1;stroke-linecap:round;stroke-linejoin:round;paint-order:markers fill stroke;stroke-dasharray:none;stroke:#ea7940;stroke-opacity:1"
         id="path5" />
    </g>
    <path
       id="rect1"
       style="fill:#fc7f7f;fill-opacity:1;stroke-width:1;stroke-linecap:butt;stroke-linejoin:miter;paint-order:markers fill stroke;stroke:none;stroke-opacity:1;stroke-dasharray:none"
       d="M 10.775391 0 L 12.511719 1.7363281 L 14.664062 1.7363281 L 14.664062 3.8886719 L 16 5.2246094 L 16 0 L 10.775391 0 z M 0 10.775391 L 0 16 L 5.2246094 16 L 3.4882812 14.263672 L 1.3359375 14.263672 L 1.3359375 12.111328 L 0 10.775391 z " />
  </g>
</svg>
